<?xml version="1.0" encoding="utf-8"?>
<!-- Generator: Adobe Illustrator 15.0.2, SVG Export Plug-In . SVG Version: 6.00 Build 0)  -->
<!DOCTYPE svg PUBLIC "-//W3C//DTD SVG 1.1//EN" "http://www.w3.org/Graphics/SVG/1.1/DTD/svg11.dtd">
<svg version="1.1" id="Calque_1" xmlns="http://www.w3.org/2000/svg" xmlns:xlink="http://www.w3.org/1999/xlink" x="0px" y="0px"
	 width="80px" height="24px" viewBox="0 0 80 24" enable-background="new 0 0 80 24" xml:space="preserve">
<g>
	<path fill="#2D2D2D" d="M19.67,6.162c-1.195-0.979-2.02-0.691-2.441-0.287c-0.146,0.142-0.607,0.514-0.945,0.784
		c0.381,0.024,1.145,0.188,1.984,1.019c0.834,0.826,0.994,1.533,1.002,1.927c0.285-0.366,0.73-0.941,0.799-1.011
		C20.528,8.126,20.864,7.141,19.67,6.162z"/>
	<path fill="#2D2D2D" d="M14.884,8.136L13.786,9.1l-4.067,4.108l-0.338,0.603l-0.585,1.467l0,0L7.51,18.5l4.671-1.939l0.589-0.33
		l1.482-1.494l0,0l2.588-2.61l0.909-1.093c0,0,0.147-0.766-0.941-1.854C15.737,8.108,14.884,8.136,14.884,8.136z"/>
</g>
</svg>
