<?xml version="1.0" encoding="utf-8"?>
<!-- Generator: Adobe Illustrator 15.0.2, SVG Export Plug-In . SVG Version: 6.00 Build 0)  -->
<!DOCTYPE svg PUBLIC "-//W3C//DTD SVG 1.1//EN" "http://www.w3.org/Graphics/SVG/1.1/DTD/svg11.dtd">
<svg version="1.1" id="Calque_1" xmlns="http://www.w3.org/2000/svg" xmlns:xlink="http://www.w3.org/1999/xlink" x="0px" y="0px"
	 width="160px" height="34px" viewBox="0 0 160 34" enable-background="new 0 0 160 34" xml:space="preserve">
<rect fill="#D31147" width="32" height="34"/>
<rect x="32" fill="#E65E84" width="32" height="34"/>
<rect x="64" opacity="0.15" fill="#D31147" width="32" height="34"/>
<rect x="96" fill="#E65E84" width="32" height="34"/>
<rect x="128" fill="#F01B57" width="32" height="34"/>
<g id="email" opacity="0.15">
	<path fill="#2E2E2D" d="M86.998,10H72.999c-0.963,0-1.75,0.788-1.75,1.75v10.501C71.248,23.213,72.036,24,72.999,24h14
		c0.965,0,1.752-0.787,1.752-1.749V11.75C88.75,10.788,87.963,10,86.998,10z M86.998,13.5l-6.999,4.376l-7-4.376v-1.75l7,4.375
		l6.999-4.375V13.5z"/>
</g>
<g id="email_1_">
	<path fill="#42B348" d="M54.998,10H40.999c-0.963,0-1.75,0.788-1.75,1.75v10.501C39.248,23.213,40.036,24,40.999,24h14
		c0.965,0,1.752-0.787,1.752-1.749V11.75C56.75,10.788,55.963,10,54.998,10z M54.998,13.5l-6.999,4.376l-7-4.376v-1.75l7,4.375
		l6.999-4.375V13.5z"/>
</g>
<g id="email_3_">
	<path fill="#42B348" d="M118.998,10h-13.999c-0.963,0-1.75,0.788-1.75,1.75v10.501c-0.001,0.962,0.787,1.749,1.75,1.749h14
		c0.965,0,1.752-0.787,1.752-1.749V11.75C120.75,10.788,119.963,10,118.998,10z M118.998,13.5l-6.999,4.376l-7-4.376v-1.75l7,4.375
		l6.999-4.375V13.5z"/>
</g>
<g id="email_4_">
	<path fill="#0A7039" d="M150.998,10h-13.999c-0.963,0-1.75,0.788-1.75,1.75v10.501c-0.001,0.962,0.787,1.749,1.75,1.749h14
		c0.965,0,1.752-0.787,1.752-1.749V11.75C152.75,10.788,151.963,10,150.998,10z M150.998,13.5l-6.999,4.376l-7-4.376v-1.75l7,4.375
		l6.999-4.375V13.5z"/>
</g>
<g id="email_2_">
	<path fill="#2E2E2D" d="M22.998,10H8.999c-0.963,0-1.75,0.788-1.75,1.75v10.501C7.248,23.213,8.036,24,8.999,24h14
		c0.965,0,1.752-0.787,1.752-1.749V11.75C24.75,10.788,23.963,10,22.998,10z M22.998,13.5l-6.999,4.376l-7-4.376v-1.75l7,4.375
		l6.999-4.375V13.5z"/>
</g>
</svg>
