<?xml version="1.0" encoding="utf-8"?>
<!-- Generator: Adobe Illustrator 15.0.2, SVG Export Plug-In . SVG Version: 6.00 Build 0)  -->
<!DOCTYPE svg PUBLIC "-//W3C//DTD SVG 1.1//EN" "http://www.w3.org/Graphics/SVG/1.1/DTD/svg11.dtd">
<svg version="1.1" id="Calque_1" xmlns="http://www.w3.org/2000/svg" xmlns:xlink="http://www.w3.org/1999/xlink" x="0px" y="0px"
	 width="32px" height="34px" viewBox="0 0 32 34" enable-background="new 0 0 32 34" xml:space="preserve">
<rect fill="#F01B57" width="32" height="34"/>
<g>
	<path fill="#0A7039" d="M15.999,9.978c-2.591,0-4.69,2.1-4.69,4.688c0,2.592,2.102,4.689,4.69,4.689c2.592,0,4.69-2.104,4.69-4.689
		S18.591,9.978,15.999,9.978z M16.228,18.382c-1.396,0-2.628-0.919-3.345-2.308h6.69C18.854,17.463,17.627,18.382,16.228,18.382z"/>
	<path fill="#0A7039" d="M18.83,19.967c-0.846,0.452-1.811,0.713-2.831,0.713c-1.022,0-1.986-0.26-2.83-0.713
		c-1.822,0.479-3.251,1.613-3.905,4.057h13.472C22.082,21.58,20.654,20.443,18.83,19.967z"/>
</g>
</svg>
