<?xml version="1.0" encoding="utf-8"?>
<!-- Generator: Adobe Illustrator 15.0.2, SVG Export Plug-In . SVG Version: 6.00 Build 0)  -->
<!DOCTYPE svg PUBLIC "-//W3C//DTD SVG 1.1//EN" "http://www.w3.org/Graphics/SVG/1.1/DTD/svg11.dtd">
<svg version="1.1" id="Calque_1" xmlns="http://www.w3.org/2000/svg" xmlns:xlink="http://www.w3.org/1999/xlink" x="0px" y="0px"
	 width="80px" height="24px" viewBox="0 0 80 24" enable-background="new 0 0 80 24" xml:space="preserve">
<g>
	<path fill="#2D2D2D" d="M14.535,13.362c0.068,0.227,0.106,0.458,0.111,0.694c0.006,0.237-0.018,0.468-0.07,0.695
		c-0.054,0.224-0.137,0.444-0.254,0.651c-0.115,0.212-0.259,0.402-0.432,0.575l-1.774,1.773c-0.256,0.257-0.547,0.447-0.872,0.571
		c-0.324,0.125-0.658,0.186-1.003,0.177c-0.345-0.008-0.683-0.079-1.015-0.215c-0.331-0.136-0.632-0.34-0.905-0.611
		c-0.268-0.268-0.471-0.568-0.606-0.899C7.578,16.441,7.506,16.103,7.5,15.76c-0.007-0.344,0.051-0.678,0.175-1.004
		c0.124-0.326,0.314-0.614,0.572-0.873l1.772-1.772c0.355-0.354,0.765-0.586,1.227-0.694c0.462-0.108,0.926-0.092,1.392,0.049
		l-3.406,3.404c-0.125,0.126-0.216,0.266-0.272,0.424c-0.057,0.161-0.083,0.324-0.083,0.49c0.003,0.169,0.037,0.334,0.106,0.497
		s0.166,0.308,0.294,0.436c0.132,0.133,0.279,0.233,0.442,0.302c0.162,0.069,0.327,0.102,0.498,0.108
		c0.17,0.004,0.334-0.023,0.491-0.084c0.156-0.06,0.296-0.15,0.422-0.275L14.535,13.362z M10.909,15.085
		c-0.079-0.078-0.14-0.172-0.181-0.273c-0.042-0.099-0.062-0.205-0.062-0.31c0-0.109,0.019-0.208,0.057-0.308
		c0.038-0.099,0.096-0.187,0.175-0.266l5.021-5.02c0.163-0.164,0.354-0.244,0.577-0.239c0.223,0.004,0.417,0.087,0.578,0.25
		c0.17,0.168,0.254,0.364,0.253,0.581c-0.002,0.216-0.083,0.406-0.247,0.57l-5.02,5.02c-0.159,0.159-0.347,0.238-0.567,0.245
		C11.274,15.339,11.079,15.255,10.909,15.085z M15.873,6.258c0.257-0.256,0.55-0.448,0.875-0.574
		c0.326-0.127,0.661-0.188,1.009-0.182c0.345,0.006,0.685,0.077,1.016,0.212c0.333,0.137,0.634,0.338,0.902,0.606
		c0.272,0.272,0.475,0.575,0.611,0.907c0.136,0.332,0.208,0.672,0.213,1.017c0.006,0.347-0.056,0.68-0.183,1.008
		c-0.126,0.327-0.318,0.618-0.574,0.875l-1.769,1.767c-0.173,0.172-0.363,0.32-0.574,0.433c-0.209,0.117-0.428,0.2-0.656,0.257
		c-0.229,0.054-0.461,0.078-0.696,0.072s-0.468-0.042-0.694-0.11l3.406-3.405c0.124-0.124,0.216-0.264,0.273-0.421
		c0.06-0.157,0.086-0.319,0.083-0.49c-0.004-0.17-0.039-0.336-0.107-0.499c-0.068-0.162-0.167-0.31-0.3-0.441
		c-0.128-0.129-0.273-0.227-0.437-0.296c-0.164-0.068-0.328-0.102-0.497-0.104c-0.168,0-0.331,0.025-0.49,0.083
		c-0.159,0.055-0.3,0.147-0.424,0.272l-3.407,3.406c-0.14-0.465-0.154-0.93-0.043-1.397c0.112-0.465,0.343-0.875,0.695-1.226
		L15.873,6.258L15.873,6.258z"/>
</g>
</svg>
