<?xml version="1.0" encoding="utf-8"?>
<!-- Generator: Adobe Illustrator 15.0.2, SVG Export Plug-In . SVG Version: 6.00 Build 0)  -->
<!DOCTYPE svg PUBLIC "-//W3C//DTD SVG 1.1//EN" "http://www.w3.org/Graphics/SVG/1.1/DTD/svg11.dtd">
<svg version="1.1" id="Calque_1" xmlns="http://www.w3.org/2000/svg" xmlns:xlink="http://www.w3.org/1999/xlink" x="0px" y="0px"
	 width="80px" height="24px" viewBox="0 0 80 24" enable-background="new 0 0 80 24" xml:space="preserve">
<circle fill="none" cx="18.25" cy="11.25" r="0.75"/>
<path fill="none" d="M17.49,7c0-0.275-0.225-0.5-0.5-0.5h-6c-0.276,0-0.5,0.225-0.5,0.5v2.5h7V7z"/>
<g>
	<rect x="11.49" y="15" fill="#2D2D2D" width="5" height="1"/>
	<path fill="#2D2D2D" d="M18.99,9.5h-0.51V7c0-0.827-0.674-1.5-1.5-1.5h-6c-0.827,0-1.5,0.673-1.5,1.5v2.5H8.99
		c-0.828,0-1.5,0.672-1.5,1.5v3c0,0.828,0.672,1.5,1.5,1.5h0.49V17c0,0.827,0.673,1.5,1.5,1.5h6c0.826,0,1.5-0.673,1.5-1.5v-1.5
		h0.51c0.828,0,1.5-0.672,1.5-1.5v-3C20.49,10.172,19.818,9.5,18.99,9.5z M17.48,17c0,0.275-0.226,0.5-0.5,0.5h-6
		c-0.276,0-0.5-0.225-0.5-0.5v-4h7V17z M17.48,9.5h-7V7c0-0.275,0.224-0.5,0.5-0.5h6c0.274,0,0.5,0.225,0.5,0.5V9.5z M18.24,12
		c-0.414,0-0.75-0.336-0.75-0.75s0.336-0.75,0.75-0.75s0.75,0.336,0.75,0.75S18.654,12,18.24,12z"/>
</g>
</svg>
