<?xml version="1.0" encoding="utf-8"?>
<!-- Generator: Adobe Illustrator 15.0.2, SVG Export Plug-In . SVG Version: 6.00 Build 0)  -->
<!DOCTYPE svg PUBLIC "-//W3C//DTD SVG 1.1//EN" "http://www.w3.org/Graphics/SVG/1.1/DTD/svg11.dtd">
<svg version="1.1" id="Calque_1" xmlns="http://www.w3.org/2000/svg" xmlns:xlink="http://www.w3.org/1999/xlink" x="0px" y="0px"
	 width="80px" height="24px" viewBox="0 0 80 24" enable-background="new 0 0 80 24" xml:space="preserve">
<g>
	<g>
		<polyline fill="#2D2D2D" points="14.47,12.502 17.608,12.502 17.608,11.54 14.47,11.54 		"/>
		<polyline fill="#2D2D2D" points="13.509,11.54 10.392,11.54 10.392,12.502 13.509,12.502 		"/>
	</g>
	<path fill="#2D2D2D" d="M14,6.407c3.084,0,5.593,2.509,5.593,5.593S17.084,17.593,14,17.593S8.407,15.084,8.407,12
		S10.916,6.407,14,6.407 M14,5.5c-3.59,0-6.5,2.91-6.5,6.5s2.91,6.5,6.5,6.5s6.5-2.91,6.5-6.5S17.59,5.5,14,5.5L14,5.5z"/>
</g>
<rect x="10.392" y="11.54" fill="#2D2D2D" width="7.216" height="0.962"/>
</svg>
