<?xml version="1.0" encoding="utf-8"?>
<!-- Generator: Adobe Illustrator 15.0.2, SVG Export Plug-In . SVG Version: 6.00 Build 0)  -->
<!DOCTYPE svg PUBLIC "-//W3C//DTD SVG 1.1//EN" "http://www.w3.org/Graphics/SVG/1.1/DTD/svg11.dtd">
<svg version="1.1" id="Calque_1" xmlns="http://www.w3.org/2000/svg" xmlns:xlink="http://www.w3.org/1999/xlink" x="0px" y="0px"
	 width="80px" height="24px" viewBox="0 0 80 24" enable-background="new 0 0 80 24" xml:space="preserve">
<path fill="#808090" d="M15.798,6.227c-0.184,0-0.363,1.119-0.538,1.155l-2.199,3.582l2.153,1.217l-0.744,4.163
	c0.447-0.419,0.941-0.87,1.308-1.169c1.791-1.468,3.642-2.983,3.642-5.33C19.421,7.715,17.932,6.227,15.798,6.227z"/>
<path fill="#808090" d="M10.216,11.872l2.182-3.548c-0.6-0.505-1.425-2.096-2.354-2.096c-2.133,0-3.624,1.487-3.624,3.617
	c0,2.347,1.85,3.862,3.64,5.329c0.604,0.496,1.56,1.403,2.059,1.884l0.666-3.731L10.216,11.872z"/>
</svg>
