<?xml version="1.0" encoding="utf-8"?>
<!-- Generator: Adobe Illustrator 15.0.2, SVG Export Plug-In . SVG Version: 6.00 Build 0)  -->
<!DOCTYPE svg PUBLIC "-//W3C//DTD SVG 1.1//EN" "http://www.w3.org/Graphics/SVG/1.1/DTD/svg11.dtd">
<svg version="1.1" id="Calque_1" xmlns="http://www.w3.org/2000/svg" xmlns:xlink="http://www.w3.org/1999/xlink" x="0px" y="0px"
	 width="160px" height="34px" viewBox="0 0 160 34" enable-background="new 0 0 160 34" xml:space="preserve">
<rect fill="#D31147" width="32" height="34"/>
<rect x="32" fill="#E65E84" width="32" height="34"/>
<rect x="64" opacity="0.15" fill="#D31147" width="32" height="34"/>
<rect x="96" fill="#E65E84" width="32" height="34"/>
<rect x="128" fill="#F01B57" width="32" height="34"/>
<g id="home" opacity="0.15">
	<polygon fill="#2E2E2D" points="78.353,24 78.353,19.059 81.646,19.059 81.646,24 85.766,24 85.766,17.412 88.236,17.412 80,10 
		71.764,17.412 74.233,17.412 74.233,24 	"/>
</g>
<g id="home_1_">
	<polygon fill="#42B348" points="46.353,24 46.353,19.059 49.646,19.059 49.646,24 53.766,24 53.766,17.412 56.236,17.412 48,10 
		39.764,17.412 42.233,17.412 42.233,24 	"/>
</g>
<g id="home_3_">
	<polygon fill="#42B348" points="110.354,24 110.354,19.059 113.646,19.059 113.646,24 117.766,24 117.766,17.412 120.236,17.412 
		112,10 103.764,17.412 106.232,17.412 106.232,24 	"/>
</g>
<g id="home_4_">
	<polygon fill="#0A7039" points="142.354,24 142.354,19.059 145.646,19.059 145.646,24 149.766,24 149.766,17.412 152.236,17.412 
		144,10 135.764,17.412 138.232,17.412 138.232,24 	"/>
</g>
<g id="home_2_">
	<polygon fill="#2E2E2D" points="14.353,24 14.353,19.059 17.646,19.059 17.646,24 21.766,24 21.766,17.412 24.236,17.412 16,10 
		7.764,17.412 10.233,17.412 10.233,24 	"/>
</g>
</svg>
