<?xml version="1.0" encoding="utf-8"?>
<!-- Generator: Adobe Illustrator 15.0.2, SVG Export Plug-In . SVG Version: 6.00 Build 0)  -->
<!DOCTYPE svg PUBLIC "-//W3C//DTD SVG 1.1//EN" "http://www.w3.org/Graphics/SVG/1.1/DTD/svg11.dtd">
<svg version="1.1" id="Calque_1" xmlns="http://www.w3.org/2000/svg" xmlns:xlink="http://www.w3.org/1999/xlink" x="0px" y="0px"
	 width="347px" height="200px" viewBox="0 0 347 200" enable-background="new 0 0 347 200" xml:space="preserve">
<g>
	<path fill="#FFFBFF" d="M186.029,9.354c-0.001,0-0.002-0.001-0.003-0.001c-0.002,0-0.002,0-0.004,0
		c-7.681-2.055-15.746-3.169-24.077-3.169c-51.316,0-92.92,41.602-92.92,92.918s41.602,92.92,92.92,92.92
		c2.898,0,5.76-0.15,8.588-0.411c-50.079-4.308-89.294-43.408-89.294-91.028c0-0.238,0.015-0.475,0.017-0.713
		c0.123-14.754,4.02-28.671,10.824-40.975l0-0.033l0.002,0.033c0.004-0.009,0.009-0.016,0.015-0.027
		c0.103,0.045,2.999,1.287,7.16,3.566c2.45-4.283,5.296-8.338,8.492-12.134c-3.23-3.34-5.139-5.77-5.188-5.831
		c0.001,0,0.001,0,0.001-0.001c0.006-0.005,0.011-0.011,0.015-0.015c14.75-16.014,35.884-26.057,59.37-26.057
		c2.656,0,5.28,0.137,7.873,0.388c1.489-0.131,2.989-0.229,4.498-0.295c-1.509,0.066-3.009,0.165-4.498,0.295
		c3.362,0.325,6.659,0.871,9.888,1.597l0.025-0.009v0.001l-0.025,0.009c0.007,0.001,0.014,0.003,0.023,0.005
		c-0.02,0.339-2.453,39.057-26.791,48.161c-0.063,0.022-0.127,0.037-0.189,0.06c2.913-0.877,5.996-1.363,9.195-1.363
		c0,0,0,0,0.001,0c-3.199,0-6.279,0.486-9.194,1.363c-0.219,0.079-0.433,0.137-0.651,0.209c-9.578,3.116-17.172,10.64-20.37,20.173
		c3.198-9.533,10.792-17.058,20.368-20.173c-17.552,5.868-35.699-9.574-44.35-18.518c-3.198,3.795-6.042,7.851-8.492,12.134
		c11.014,6.027,30.83,19.287,30.83,36.668c0,13.102,7.934,24.365,19.257,29.252c1.401,0.606,2.86,1.087,4.354,1.485
		c2.634,0.707,5.389,1.12,8.247,1.12c-0.001,0-0.001,0-0.001,0c-2.855,0-5.612-0.413-8.247-1.12
		c0.067,0.036,0.133,0.057,0.199,0.092c19.471,10.368,25.78,47.574,25.832,47.886c4.87-1.095,9.576-2.619,14.071-4.553
		c-0.059-0.114-18.747-36.442-6.929-54.369c0.002-0.003,0.004-0.004,0.006-0.007c0.003-0.006,0.009-0.012,0.013-0.017
		c0.505-0.638,1.006-1.283,1.463-1.957c0.006-0.006,0.009-0.012,0.014-0.017c0.005-0.007,0.009-0.014,0.014-0.021
		c14.785-17.008,53.68-10.558,53.932-10.517c0.211-2.394,0.34-4.81,0.34-7.259c0-2.441-0.129-4.855-0.34-7.243
		c-0.222,0.028-43.284,5.458-53.77-10.278c-0.088-0.133-0.174-0.267-0.263-0.398c-10.024-16.234,5.471-56.118,5.521-56.244
		c-2.245-0.967-4.545-1.83-6.891-2.589c2.348,0.759,4.646,1.623,6.894,2.589l0.002-0.006l0.01,0.011
		c26.605,11.451,45.813,36.796,48.499,66.897l0.012,0.016l-0.01,0.001c0.211,2.388,0.339,4.798,0.339,7.243
		c0,2.45-0.129,4.865-0.339,7.258l0.01,0.004l-0.012,0.017c-2.695,30.094-21.899,55.431-48.499,66.877l-0.002,0.003
		c-0.004,0.001-0.008,0.001-0.01,0.005v-0.002c-4.495,1.935-9.199,3.458-14.071,4.554c0,0.002,0.002,0.015,0.002,0.015l0,0
		c0-0.002-0.002-0.013-0.002-0.015c-0.009,0.002-0.017,0.004-0.023,0.005h-0.004c-5.716,1.285-11.653,1.986-17.76,1.986
		c-3.328,0-6.6-0.226-9.823-0.616c8.321,2.353,17.157,3.625,26.316,3.625c12.69,0,24.758-2.447,35.694-6.835
		c24.583-16.721,40.733-44.912,40.733-76.883c0-27.568-12.018-52.324-31.091-69.339c26.369,14.298,44.074,40.667,44.074,70.846
		c0,33.73-22.106,62.705-53.716,75.379c-0.001,0-0.002,0-0.002,0.001c-10.938,4.387-23.004,6.834-35.692,6.834
		c-9.159,0-17.996-1.273-26.316-3.626c-19.093-2.321-36.122-11.3-48.703-24.557c-0.004-0.002-0.009-0.006-0.011-0.01l0.001-0.002
		h-0.001c0.029-0.033,1.489-1.685,3.958-4.158l0.001,0.002c8.119-8.116,27.104-24.995,41.979-22.114
		c-11.324-4.888-19.258-16.15-19.258-29.251c0,18.137-20.116,34.221-30.039,41.051l0,0c-3.22,2.216-5.363,3.459-5.402,3.481
		c-0.001-0.003-0.002-0.006-0.006-0.01c-8.329-12.565-13.232-27.592-13.384-43.756c-0.002,0.238-0.017,0.475-0.017,0.713
		c0,47.62,39.213,86.719,89.293,91.028h0c3.03,0.262,6.098,0.411,9.199,0.411c54.396,0,98.493-40.94,98.493-91.439
		C278.228,52.05,237.489,12.37,186.029,9.354z M94.245,55.194c-0.007,0.012-0.016,0.023-0.023,0.036
		c8.531-13.83,20.836-25.393,35.613-33.479C115.072,29.83,102.775,41.38,94.245,55.194z M176.813,94.182
		c0-2.343,1.904-4.247,4.247-4.247c2.345,0,4.248,1.903,4.248,4.247s-1.904,4.247-4.248,4.247S176.813,96.524,176.813,94.182z
		 M178.937,115.421c0,2.344-1.905,4.249-4.247,4.249c-2.343,0-4.248-1.906-4.248-4.249s1.904-4.248,4.248-4.248
		C177.032,111.173,178.937,113.078,178.937,115.421z M163.444,77.192c2.345,0,4.248,1.904,4.248,4.249
		c0,2.344-1.905,4.247-4.248,4.247c-2.344,0-4.248-1.905-4.248-4.247C159.196,79.096,161.099,77.192,163.444,77.192z
		 M140.707,94.182c0-2.343,1.904-4.247,4.248-4.247c2.343,0,4.247,1.903,4.247,4.247s-1.905,4.247-4.247,4.247
		C142.612,98.429,140.707,96.524,140.707,94.182z M151.326,119.67c-2.342,0-4.247-1.906-4.247-4.249
		c0-2.345,1.905-4.248,4.247-4.248c2.343,0,4.248,1.905,4.248,4.248C155.574,117.765,153.669,119.67,151.326,119.67z
		 M152.389,99.102c0-5.271,4.282-9.557,9.556-9.557c5.271,0,9.557,4.286,9.557,9.557c0,5.273-4.286,9.557-9.557,9.557
		C156.672,108.659,152.389,104.375,152.389,99.102z M183.354,21.289c0.326,0.089,0.644,0.196,0.968,0.289
		C183.998,21.485,183.68,21.378,183.354,21.289z"/>
	<path fill="#FFFBFF" d="M242.313,106.361c-0.003,0.007-0.003,0.013-0.003,0.021l0.014-0.018L242.313,106.361z"/>
	<path fill="#FFFBFF" d="M193.802,24.94c0.002,0.002,0.007,0.002,0.012,0.004l-0.01-0.01L193.802,24.94z"/>
	<path fill="#FFFBFF" d="M242.31,91.841c0.003,0.007,0.003,0.013,0.003,0.018l0.011-0.001L242.31,91.841z"/>
	<path fill="#FFFBFF" d="M153.984,27.953c-15.574,0-42.623,18.302-42.622,18.302l10.056,8.07
		C131.569,38.555,153.984,27.953,153.984,27.953z"/>
	<path fill="#FFFBFF" d="M111.085,121.933c0,0-6.641-21.602,0-43.54l-15.18-9.451c0,0-15.705,31.27,0.931,65.279L111.085,121.933z"
		/>
	<path fill="#FFFBFF" d="M122.481,143.639l-9.559,9.277c21.594,20.188,41.062,20.355,41.062,20.355
		C127.789,159.656,122.481,143.639,122.481,143.639z"/>
</g>
</svg>
