<?xml version="1.0" encoding="utf-8"?>
<!-- Generator: Adobe Illustrator 15.0.2, SVG Export Plug-In . SVG Version: 6.00 Build 0)  -->
<!DOCTYPE svg PUBLIC "-//W3C//DTD SVG 1.1//EN" "http://www.w3.org/Graphics/SVG/1.1/DTD/svg11.dtd">
<svg version="1.1" id="Calque_1" xmlns="http://www.w3.org/2000/svg" xmlns:xlink="http://www.w3.org/1999/xlink" x="0px" y="0px"
	 width="369px" height="384px" viewBox="0 0 369 384" enable-background="new 0 0 369 384" xml:space="preserve">
<g>
	<path fill="#FFFBFF" d="M202.125,64.473c-0.002,0-0.003-0.001-0.005-0.001s-0.003,0-0.005,0C191.279,61.572,179.899,60,168.145,60
		C95.741,60,37.041,118.697,37.041,191.102c0,72.405,58.697,131.104,131.104,131.104c4.089,0,8.127-0.213,12.117-0.58
		c-70.658-6.078-125.988-61.246-125.988-128.435c0-0.336,0.021-0.67,0.024-1.006c0.173-20.817,5.672-40.453,15.271-57.813
		l-0.001-0.047l0.003,0.047c0.006-0.012,0.013-0.022,0.021-0.038c0.145,0.064,4.23,1.816,10.103,5.031
		c3.456-6.043,7.472-11.764,11.981-17.12c-4.558-4.713-7.251-8.141-7.32-8.227c0.001-0.001,0.001-0.001,0.002-0.002
		c0.009-0.006,0.016-0.015,0.021-0.021c20.812-22.595,50.63-36.764,83.767-36.764c3.747,0,7.449,0.193,11.107,0.547
		c2.102-0.185,4.218-0.323,6.347-0.416c-2.129,0.093-4.245,0.232-6.347,0.417c4.743,0.459,9.396,1.229,13.95,2.253l0.037-0.012
		v0.001l-0.037,0.012c0.011,0.002,0.021,0.005,0.033,0.008c-0.026,0.478-3.461,55.107-37.8,67.951
		c-0.09,0.032-0.18,0.053-0.268,0.085c4.11-1.238,8.46-1.923,12.974-1.923c0.001,0,0.001,0,0.002,0
		c-4.514,0-8.859,0.686-12.972,1.923c-0.309,0.111-0.61,0.193-0.919,0.295c-13.514,4.396-24.229,15.013-28.74,28.463
		c4.513-13.45,15.227-24.067,28.738-28.463c-24.765,8.279-50.369-13.508-62.575-26.127c-4.513,5.355-8.525,11.077-11.981,17.12
		c15.54,8.504,43.499,27.212,43.499,51.736c0,18.486,11.194,34.377,27.171,41.273c1.977,0.855,4.035,1.533,6.144,2.096
		c3.716,0.998,7.604,1.58,11.636,1.58c-0.001,0-0.001,0-0.002,0c-4.028,0-7.919-0.582-11.636-1.58
		c0.095,0.051,0.188,0.08,0.281,0.129c27.473,14.629,36.375,67.125,36.447,67.564c6.871-1.545,13.512-3.695,19.854-6.424
		c-0.083-0.162-26.45-51.418-9.775-76.711c0.003-0.004,0.005-0.006,0.008-0.01c0.005-0.009,0.013-0.017,0.018-0.023
		c0.713-0.9,1.42-1.811,2.064-2.762c0.008-0.008,0.013-0.017,0.02-0.023c0.007-0.01,0.013-0.02,0.019-0.029
		c20.861-23.996,75.739-14.896,76.094-14.838c0.299-3.377,0.479-6.785,0.479-10.242c0-3.444-0.182-6.85-0.479-10.219
		c-0.313,0.039-61.07,7.701-75.864-14.502c-0.124-0.188-0.245-0.377-0.371-0.562c-14.144-22.906,7.719-79.179,7.789-79.357
		c-3.168-1.364-6.412-2.582-9.722-3.653c3.312,1.071,6.556,2.29,9.726,3.654l0.003-0.009l0.014,0.015
		c37.539,16.157,64.639,51.917,68.429,94.388l0.018,0.022l-0.015,0.002c0.298,3.369,0.479,6.771,0.479,10.22
		c0,3.457-0.183,6.864-0.479,10.241l0.015,0.005l-0.018,0.024c-3.803,42.459-30.897,78.209-68.429,94.358l-0.002,0.004
		c-0.006,0.002-0.012,0.002-0.014,0.007l-0.001-0.002c-6.342,2.729-12.979,4.879-19.854,6.424c0,0.004,0.003,0.021,0.003,0.021l0,0
		c0-0.002-0.003-0.017-0.003-0.021c-0.013,0.004-0.022,0.006-0.033,0.008h-0.005c-8.064,1.813-16.442,2.802-25.058,2.802
		c-4.695,0-9.313-0.318-13.86-0.869c11.74,3.319,24.207,5.114,37.131,5.114c17.905,0,34.932-3.452,50.362-9.643
		c34.685-23.593,57.472-63.369,57.472-108.478c0-38.897-16.956-73.826-43.867-97.833c37.206,20.174,62.187,57.379,62.187,99.958
		c0,47.592-31.191,88.473-75.79,106.354c-0.001,0-0.002,0-0.003,0.002c-15.433,6.188-32.456,9.642-50.359,9.642
		c-12.923,0-25.391-1.796-37.13-5.115c-26.938-3.275-50.965-15.943-68.716-34.648c-0.006-0.002-0.013-0.008-0.016-0.014l0.001-0.002
		h-0.001c0.04-0.047,2.101-2.377,5.585-5.867l0.001,0.002c11.455-11.451,38.243-35.266,59.229-31.201
		c-15.978-6.896-27.172-22.787-27.172-41.271c0,25.59-28.383,48.283-42.383,57.92l0,0c-4.543,3.127-7.567,4.881-7.622,4.912
		c-0.001-0.004-0.003-0.008-0.008-0.014c-11.752-17.729-18.67-38.93-18.884-61.736c-0.003,0.336-0.024,0.67-0.024,1.006
		c0,67.188,55.327,122.354,125.987,128.435h-0.001c4.275,0.369,8.604,0.58,12.979,0.58c76.75,0,138.968-57.765,138.968-129.015
		C332.211,124.715,274.732,68.729,202.125,64.473z M72.625,129.15c-0.011,0.017-0.022,0.033-0.033,0.05
		c12.036-19.512,29.398-35.827,50.247-47.236C102.009,93.363,84.659,109.66,72.625,129.15z M189.121,184.16
		c0-3.307,2.688-5.992,5.993-5.992c3.309,0,5.994,2.686,5.994,5.992c0,3.306-2.688,5.992-5.994,5.992
		C191.807,190.152,189.121,187.465,189.121,184.16z M192.118,214.127c0,3.307-2.688,5.994-5.992,5.994
		c-3.306,0-5.993-2.689-5.993-5.994c0-3.307,2.687-5.994,5.993-5.994C189.432,208.133,192.118,210.82,192.118,214.127z
		 M170.259,160.188c3.309,0,5.993,2.686,5.993,5.994c0,3.307-2.688,5.992-5.993,5.992c-3.307,0-5.993-2.688-5.993-5.992
		C164.266,162.874,166.951,160.188,170.259,160.188z M138.18,184.16c0-3.307,2.687-5.992,5.993-5.992
		c3.306,0,5.992,2.686,5.992,5.992c0,3.306-2.688,5.992-5.992,5.992C140.867,190.152,138.18,187.465,138.18,184.16z
		 M153.162,220.121c-3.305,0-5.992-2.689-5.992-5.994c0-3.309,2.688-5.994,5.992-5.994c3.306,0,5.993,2.688,5.993,5.994
		S156.468,220.121,153.162,220.121z M154.661,191.102c0-7.438,6.042-13.483,13.483-13.483c7.438,0,13.484,6.047,13.484,13.483
		c0,7.439-6.047,13.484-13.484,13.484C160.704,204.586,154.661,198.541,154.661,191.102z M198.351,81.313
		c0.46,0.125,0.908,0.276,1.366,0.407C199.26,81.589,198.811,81.438,198.351,81.313z"/>
	<path fill="#FFFBFF" d="M281.537,201.344c-0.003,0.01-0.003,0.018-0.003,0.029l0.019-0.025L281.537,201.344z"/>
	<path fill="#FFFBFF" d="M213.093,86.464c0.003,0.003,0.01,0.003,0.017,0.006l-0.014-0.015L213.093,86.464z"/>
	<path fill="#FFFBFF" d="M281.534,180.857c0.003,0.01,0.003,0.018,0.003,0.024l0.016-0.002L281.534,180.857z"/>
	<path fill="#FFFBFF" d="M156.911,90.715c-21.974,0-60.138,25.823-60.136,25.822l14.188,11.387
		C125.285,105.674,156.911,90.715,156.911,90.715z"/>
	<path fill="#FFFBFF" d="M96.385,223.314c0,0-9.37-30.479,0-61.432l-21.418-13.335c0,0-22.158,44.119,1.313,92.104L96.385,223.314z"
		/>
	<path fill="#FFFBFF" d="M112.463,253.939l-13.486,13.09c30.468,28.484,57.936,28.721,57.936,28.721
		C119.953,276.539,112.463,253.939,112.463,253.939z"/>
</g>
</svg>
