<?xml version="1.0" encoding="utf-8"?>
<!-- Generator: Adobe Illustrator 15.0.2, SVG Export Plug-In . SVG Version: 6.00 Build 0)  -->
<!DOCTYPE svg PUBLIC "-//W3C//DTD SVG 1.1//EN" "http://www.w3.org/Graphics/SVG/1.1/DTD/svg11.dtd">
<svg version="1.1" id="Calque_1" xmlns="http://www.w3.org/2000/svg" xmlns:xlink="http://www.w3.org/1999/xlink" x="0px" y="0px"
	 width="80px" height="80px" viewBox="0 0 80 80" enable-background="new 0 0 80 80" xml:space="preserve">
<g display="none">
	<path display="inline" d="M41.5,2.333c-13.439,0-24.333,10.895-24.333,24.334c0,4.211,1.07,8.172,2.953,11.627l0,0l21.382,39.373
		L61.955,40H41.5V2.333z"/>
	<path display="inline" d="M67.835,24.334C67.835,10.895,56.939,0,43.5,0v37.667h20.455l0.927-1.706
		C66.766,32.506,67.835,28.545,67.835,24.334z"/>
</g>
<g>
	<path fill="#FFFBFF" d="M64.045,15.947v25.524L40,63.365L15.947,41.472V15.947H64.045 M66,14H14v28.333L40,66l26-23.667V14L66,14z"
		/>
	<path fill="#FFFBFF" d="M61.455,18.553v21.899L40,59.703L18.553,40.452V18.553H61.455 M62.75,17.25h-45.5v23.791L40,61.455
		l22.75-20.414V17.25L62.75,17.25z"/>
	<g>
		<path fill="#FFFBFF" d="M30.867,53.127c-0.541,0-0.98-2.181-0.98-0.971V22.822c0-0.431,0.276-0.812,0.685-0.938
			c0.409-0.125,0.856,0.025,1.093,0.381l9.133,13.245c0.307,0.44,0.193,1.05-0.246,1.354c-0.437,0.305-1.046,0.196-1.351-0.253
			l-7.363-10.665v26.21C31.837,52.684,31.405,53.127,30.867,53.127z"/>
	</g>
	<g>
		<path fill="#FFFBFF" d="M49.133,53.127c-0.527,0-0.98-0.443-0.98-0.971v-26.21l-7.355,10.665
			c-0.306,0.449-0.911,0.558-1.348,0.253C39,36.56,38.896,35.95,39.2,35.51l9.136-13.245c0.236-0.355,0.678-0.506,1.084-0.381
			c0.406,0.127,0.693,0.508,0.693,0.938v29.334C50.113,50.946,49.674,53.127,49.133,53.127z"/>
	</g>
</g>
</svg>
