<?xml version="1.0" encoding="utf-8"?>
<!-- Generator: Adobe Illustrator 15.0.2, SVG Export Plug-In . SVG Version: 6.00 Build 0)  -->
<!DOCTYPE svg PUBLIC "-//W3C//DTD SVG 1.1//EN" "http://www.w3.org/Graphics/SVG/1.1/DTD/svg11.dtd">
<svg version="1.1" id="Calque_1" xmlns="http://www.w3.org/2000/svg" xmlns:xlink="http://www.w3.org/1999/xlink" x="0px" y="0px"
	 width="92px" height="56px" viewBox="0 0 92 56" enable-background="new 0 0 92 56" xml:space="preserve">
<g>
	<path fill="#FFFBFF" d="M67.039,6.954v22.334L46,48.444L24.954,29.288V6.954H67.039 M68.75,5.25h-45.5v24.791L46,50.75
		l22.75-20.709V5.25L68.75,5.25z"/>
	<path fill="#FFFBFF" d="M64.773,9.233v19.162L46,45.24L27.233,28.396V9.233H64.773 M65.906,8.094H26.094v20.817L46,46.773
		l19.906-17.862V8.094L65.906,8.094z"/>
	<g>
		<path fill="#FFFBFF" d="M38.009,39.486c-0.474,0-0.858-1.908-0.858-0.85V12.97c0-0.377,0.242-0.71,0.599-0.821
			c0.358-0.109,0.749,0.022,0.956,0.333l7.991,11.59c0.269,0.385,0.169,0.918-0.215,1.185c-0.382,0.267-0.915,0.171-1.182-0.221
			l-6.443-9.332v22.934C38.857,39.098,38.479,39.486,38.009,39.486z"/>
	</g>
	<g>
		<path fill="#FFFBFF" d="M53.991,39.486c-0.462,0-0.858-0.389-0.858-0.85V15.703l-6.436,9.332
			c-0.268,0.393-0.797,0.488-1.179,0.221c-0.393-0.267-0.484-0.8-0.218-1.185l7.994-11.59c0.207-0.311,0.593-0.442,0.948-0.333
			c0.355,0.111,0.607,0.444,0.607,0.821v25.667C54.85,37.578,54.465,39.486,53.991,39.486z"/>
	</g>
</g>
</svg>
