<?xml version="1.0" encoding="utf-8"?>
<!-- Generator: Adobe Illustrator 15.0.2, SVG Export Plug-In . SVG Version: 6.00 Build 0)  -->
<!DOCTYPE svg PUBLIC "-//W3C//DTD SVG 1.1//EN" "http://www.w3.org/Graphics/SVG/1.1/DTD/svg11.dtd">
<svg version="1.1" id="Calque_1" xmlns="http://www.w3.org/2000/svg" xmlns:xlink="http://www.w3.org/1999/xlink" x="0px" y="0px"
	 width="205px" height="205px" viewBox="0 0 205 205" enable-background="new 0 0 205 205" xml:space="preserve">
<g>
	<path fill="#FFFBFF" d="M171.86,32.117v73.628l-69.36,63.154l-69.383-63.154V32.117H171.86 M177.5,26.5h-150v81.729l75,68.271
		l75-68.271V26.5L177.5,26.5z"/>
	<path fill="#FFFBFF" d="M164.39,39.633v63.171l-61.89,55.532l-61.867-55.532V39.633H164.39 M168.125,35.875H36.875v68.628
		L102.5,163.39l65.625-58.887V35.875L168.125,35.875z"/>
	<g>
		<path fill="#FFFBFF" d="M76.155,139.366c-1.561,0-2.828-6.29-2.828-2.8V51.949c0-1.242,0.797-2.341,1.975-2.707
			c1.18-0.36,2.471,0.073,3.152,1.099l26.345,38.207c0.885,1.271,0.558,3.028-0.71,3.907c-1.259,0.879-3.017,0.566-3.896-0.729
			L78.953,60.96v75.606C78.953,138.087,77.708,139.366,76.155,139.366z"/>
	</g>
	<g>
		<path fill="#FFFBFF" d="M128.845,139.366c-1.521,0-2.828-1.279-2.828-2.8V60.96l-21.218,30.765
			c-0.883,1.296-2.628,1.608-3.888,0.729c-1.296-0.879-1.597-2.637-0.718-3.907l26.353-38.207c0.682-1.025,1.955-1.459,3.127-1.099
			c1.172,0.366,2,1.465,2,2.707v84.618C131.673,133.076,130.405,139.366,128.845,139.366z"/>
	</g>
</g>
</svg>
