<?xml version="1.0" encoding="utf-8"?>
<!-- Generator: Adobe Illustrator 15.0.2, SVG Export Plug-In . SVG Version: 6.00 Build 0)  -->
<!DOCTYPE svg PUBLIC "-//W3C//DTD SVG 1.1//EN" "http://www.w3.org/Graphics/SVG/1.1/DTD/svg11.dtd">
<svg version="1.1" id="Calque_1" xmlns="http://www.w3.org/2000/svg" xmlns:xlink="http://www.w3.org/1999/xlink" x="0px" y="0px"
	 width="80px" height="80px" viewBox="0 0 80 80" enable-background="new 0 0 80 80" xml:space="preserve">
<g>
	<path fill="#FFFBFF" d="M67.744,12.247v29.452L40,66.957L12.247,41.699V12.247H67.744 M70,10H10v32.691L40,70l30-27.309V10L70,10z"
		/>
	<path fill="#FFFBFF" d="M64.756,15.252V40.52L40,62.734L15.252,40.523V15.252H64.756 M66.25,13.75H13.751v27.451L40,64.756
		l26.25-23.555V13.75L66.25,13.75z"/>
	<g>
		<path fill="#FFFBFF" d="M29.463,55.146c-0.625,0-1.132-2.516-1.132-1.121V20.181c0-0.498,0.32-0.938,0.791-1.083
			c0.472-0.144,0.988,0.029,1.261,0.438L40.92,34.819c0.354,0.508,0.223,1.212-0.284,1.563c-0.504,0.353-1.207,0.226-1.559-0.291
			l-8.496-12.305v30.244C30.581,54.635,30.082,55.146,29.463,55.146z"/>
	</g>
	<g>
		<path fill="#FFFBFF" d="M50.538,55.146c-0.609,0-1.132-0.513-1.132-1.121V23.784L40.92,36.09
			c-0.354,0.518-1.051,0.643-1.555,0.291c-0.518-0.352-0.638-1.054-0.288-1.563l10.542-15.283c0.272-0.41,0.782-0.583,1.251-0.438
			c0.469,0.146,0.8,0.585,0.8,1.082v33.847C51.67,52.631,51.162,55.146,50.538,55.146z"/>
	</g>
</g>
</svg>
