<?xml version="1.0" encoding="utf-8"?>
<!-- Generator: Adobe Illustrator 15.0.2, SVG Export Plug-In . SVG Version: 6.00 Build 0)  -->
<!DOCTYPE svg PUBLIC "-//W3C//DTD SVG 1.1//EN" "http://www.w3.org/Graphics/SVG/1.1/DTD/svg11.dtd">
<svg version="1.1" id="Calque_1" xmlns="http://www.w3.org/2000/svg" xmlns:xlink="http://www.w3.org/1999/xlink" x="0px" y="0px"
	 width="80px" height="28px" viewBox="0 0 80 28" enable-background="new 0 0 80 28" xml:space="preserve">
<g id="Calque_1_1_">
	<g>
		<path fill="#FFFBFF" d="M9.545,12.534l2.467,7.567l2.64-7.567h1.945l2.397,7.567l2.658-7.567h2.518L19.394,23.85h-2.223
			l-2.188-6.604l-2.536,6.604h-2.241c0,0-2.98-8.449-3.338-9.375c-0.625-1.614-1.391-1.94-1.391-1.94L9.545,12.534L9.545,12.534z"/>
		<path fill="#FFFBFF" d="M42.795,12.534c0.364,0,3.941-0.07,4.324-0.07c2.9,0,5.055,0.07,6.549,1.908
			c0.955,1.16,1.111,2.658,1.111,3.479c0,2.784-1.563,4.711-3.752,5.517c-1.112,0.409-2.607,0.481-4.325,0.481h-3.907V12.534
			L42.795,12.534z M45.975,22.297h0.746c2.381,0,4.654,0,4.654-4.318c0-3.999-2.449-3.999-3.855-3.999
			c-0.435,0-1.022,0.018-1.545,0.018V22.297z"/>
		<polygon fill="#FFFBFF" points="63.421,14.23 63.421,15.672 58.797,15.672 58.797,18.1 62.919,18.1 62.919,19.51 58.797,19.51 
			58.797,22.316 63.611,22.316 63.611,23.852 56.098,23.852 56.098,14.23 		"/>
		<polygon fill="#FFFBFF" points="66.93,14.23 69.262,20.952 71.964,14.23 74.148,14.23 69.572,23.852 67.623,23.852 63.859,14.23 
					"/>
		<path fill="#FFFBFF" d="M71.878,22.896c0-0.601,0.521-1.053,1.183-1.053c0.653,0,1.172,0.451,1.172,1.053
			c0,0.608-0.519,1.06-1.172,1.06C72.396,23.954,71.878,23.505,71.878,22.896z M73.061,24.165c0.787,0,1.463-0.536,1.463-1.271
			c0-0.728-0.676-1.265-1.463-1.265c-0.799,0-1.473,0.537-1.473,1.265C71.588,23.629,72.262,24.165,73.061,24.165z M72.751,22.997
			h0.293l0.44,0.632h0.283l-0.479-0.643c0.245-0.025,0.437-0.143,0.437-0.401c0-0.288-0.195-0.415-0.593-0.415H72.5v1.459h0.251
			V22.997z M72.751,22.811v-0.451h0.347c0.176,0,0.363,0.033,0.363,0.215c0,0.226-0.193,0.234-0.408,0.234h-0.302V22.811z"/>
		<path fill="#FFFBFF" d="M38.438,14.23c0.914,0,1.645,0.19,2.193,0.575c0.583,0.413,0.873,1.023,0.873,1.832
			c0,0.854-0.348,1.456-1.042,1.813c-0.228,0.121-0.566,0.24-1.02,0.357c0.53,0.1,0.957,0.256,1.283,0.471
			c0.646,0.435,0.963,1.053,0.963,1.858c0,0.993-0.408,1.729-1.221,2.207c-0.535,0.313-1.167,0.47-1.893,0.47h-4.72V14.23H38.438z
			 M36.6,18.443h0.554c0.53,0,0.915-0.088,1.152-0.267c0.157-0.12,0.285-0.313,0.385-0.573c0.1-0.262,0.151-0.545,0.151-0.848
			c0-0.992-0.505-1.49-1.51-1.49H36.6V18.443z M36.6,22.775h0.867c0.969,0,1.454-0.518,1.454-1.553c0-1.178-0.566-1.767-1.703-1.767
			H36.6V22.775z"/>
		<polygon fill="#FFFBFF" points="32.233,14.23 32.233,15.672 27.612,15.672 27.612,18.1 31.732,18.1 31.732,19.51 27.612,19.51 
			27.612,22.316 32.426,22.316 32.426,23.852 24.911,23.852 24.911,14.23 		"/>
	</g>
	<g>
		<path fill="#FFFBFF" d="M8.342,8.479v2.364H6.933V4.422c0.939-0.033,1.488-0.05,1.647-0.05c1.253,0,2.169,0.156,2.749,0.468
			c0.581,0.312,0.87,0.798,0.87,1.459c0,1.475-1.073,2.212-3.217,2.212C8.822,8.511,8.608,8.5,8.342,8.479z M8.342,5.408v2.058
			c0.238,0.02,0.426,0.031,0.563,0.031c0.643,0,1.113-0.088,1.409-0.261c0.295-0.175,0.444-0.458,0.444-0.851
			c0-0.666-0.663-1-1.989-1C8.622,5.387,8.479,5.394,8.342,5.408z"/>
		<path fill="#FFFBFF" d="M12.784,8.483c0-0.717,0.256-1.3,0.767-1.75c0.511-0.451,1.186-0.676,2.023-0.676
			c0.881,0,1.565,0.216,2.053,0.649c0.486,0.433,0.73,1.025,0.73,1.777c0,0.75-0.248,1.345-0.745,1.787
			c-0.497,0.442-1.176,0.663-2.039,0.663c-0.882,0-1.567-0.222-2.056-0.668C13.028,9.821,12.784,9.224,12.784,8.483z M14.192,8.483
			c0,1.036,0.461,1.554,1.382,1.554c0.423,0,0.757-0.134,1.004-0.403c0.248-0.27,0.372-0.652,0.372-1.15
			c0-1.021-0.458-1.531-1.376-1.531c-0.423,0-0.758,0.136-1.007,0.404C14.317,7.625,14.192,8,14.192,8.483z"/>
		<path fill="#FFFBFF" d="M25.073,10.932H24.58l-1.592-2.887l-1.587,2.887h-0.498l-2.189-4.787h1.425l1.165,2.804l1.42-2.804h0.487
			l1.468,2.822l1.257-2.822h1.333L25.073,10.932z"/>
		<path fill="#FFFBFF" d="M33.203,8.832h-4.144c0.025,0.375,0.184,0.666,0.476,0.874s0.686,0.312,1.181,0.312
			c0.618,0,1.087-0.13,1.408-0.391l0.525,0.838c-0.476,0.313-1.188,0.469-2.134,0.469c-0.885,0-1.585-0.209-2.099-0.629
			c-0.515-0.419-0.772-1.005-0.772-1.757c0-0.74,0.283-1.341,0.847-1.799c0.564-0.458,1.243-0.688,2.034-0.688
			c0.842,0,1.517,0.202,2.026,0.609c0.509,0.407,0.764,0.924,0.764,1.554C33.316,8.354,33.278,8.558,33.203,8.832z M29.107,8.005
			h2.85c-0.095-0.686-0.564-1.03-1.409-1.03C29.775,6.974,29.295,7.319,29.107,8.005z"/>
		<path fill="#FFFBFF" d="M37.752,7.167c-0.241-0.128-0.507-0.193-0.796-0.193c-0.314,0-0.594,0.116-0.837,0.347
			c-0.243,0.231-0.365,0.513-0.365,0.847v2.675H34.4V6.146h1.354v0.431c0.379-0.346,0.883-0.517,1.511-0.517
			c0.462,0,0.816,0.056,1.062,0.17L37.752,7.167z"/>
		<path fill="#FFFBFF" d="M44.273,8.832h-4.146c0.025,0.375,0.185,0.666,0.479,0.874c0.293,0.208,0.688,0.312,1.183,0.312
			c0.616,0,1.087-0.13,1.407-0.391l0.525,0.838c-0.479,0.313-1.188,0.469-2.139,0.469c-0.884,0-1.584-0.209-2.099-0.629
			c-0.515-0.419-0.772-1.005-0.772-1.757c0-0.74,0.282-1.341,0.848-1.799c0.564-0.459,1.241-0.688,2.033-0.688
			c0.844,0,1.518,0.202,2.024,0.609c0.512,0.407,0.767,0.924,0.767,1.554C44.389,8.354,44.35,8.558,44.273,8.832z M40.179,8.005
			h2.848c-0.092-0.686-0.563-1.03-1.407-1.03C40.848,6.974,40.367,7.319,40.179,8.005z"/>
		<path fill="#FFFBFF" d="M49.203,10.845V10.56c-0.112,0.1-0.303,0.187-0.569,0.261c-0.266,0.075-0.543,0.111-0.827,0.111
			c-0.812,0-1.445-0.208-1.91-0.623S45.2,9.314,45.2,8.572c0-0.743,0.268-1.347,0.8-1.814c0.532-0.468,1.2-0.701,2.002-0.701
			c0.439,0,0.842,0.073,1.204,0.219V4.395l1.353-0.263v6.713H49.203L49.203,10.845L49.203,10.845z M49.203,7.269
			c-0.289-0.187-0.592-0.28-0.906-0.28c-0.541,0-0.957,0.133-1.25,0.402c-0.292,0.268-0.439,0.651-0.439,1.151
			c0,0.978,0.582,1.466,1.746,1.466c0.129,0,0.287-0.032,0.479-0.094c0.188-0.063,0.313-0.127,0.373-0.192L49.203,7.269
			L49.203,7.269z"/>
		<path fill="#FFFBFF" d="M55.598,10.681l-0.193,0.22H54.92v-4.16l0.859-0.167V7.97c0.229-0.113,0.479-0.171,0.75-0.171
			c0.541,0,0.979,0.139,1.311,0.415c0.331,0.277,0.496,0.63,0.496,1.063c0,0.5-0.166,0.897-0.499,1.188
			c-0.335,0.291-0.785,0.437-1.354,0.437C56.139,10.9,55.844,10.827,55.598,10.681z M55.779,8.565v1.56
			c0.127,0.122,0.299,0.181,0.515,0.181c0.416,0,0.71-0.079,0.883-0.24c0.175-0.16,0.263-0.416,0.263-0.768
			c0-0.607-0.355-0.91-1.076-0.91C56.107,8.391,55.913,8.45,55.779,8.565z"/>
		<path fill="#FFFBFF" d="M60.663,11.325c-0.093,0.2-0.29,0.366-0.595,0.496c-0.303,0.132-0.652,0.198-1.057,0.198V11.4
			c0.662,0,0.993-0.135,0.993-0.404c0-0.179-0.091-0.452-0.271-0.822l-1.156-2.32h0.895l1.006,2.066l0.906-2.066h0.893
			L60.663,11.325z"/>
	</g>
</g>
</svg>
