<?xml version="1.0" encoding="utf-8"?>
<!-- Generator: Adobe Illustrator 15.0.2, SVG Export Plug-In . SVG Version: 6.00 Build 0)  -->
<!DOCTYPE svg PUBLIC "-//W3C//DTD SVG 1.1//EN" "http://www.w3.org/Graphics/SVG/1.1/DTD/svg11.dtd">
<svg version="1.1" id="Calque_1" xmlns="http://www.w3.org/2000/svg" xmlns:xlink="http://www.w3.org/1999/xlink" x="0px" y="0px"
	 width="1016px" height="206px" viewBox="0 0 1016 206" enable-background="new 0 0 1016 206" xml:space="preserve">
<g opacity="0.15">
	<polygon fill="#FFFBFF" points="526.541,146.629 547.002,126.167 545.588,126.167 525.127,146.629 	"/>
	<polygon fill="#FFFBFF" points="536.541,146.629 557.002,126.167 555.588,126.167 535.127,146.629 	"/>
	<polygon fill="#FFFBFF" points="546.541,146.629 567.002,126.167 565.588,126.167 545.127,146.629 	"/>
	<polygon fill="#FFFBFF" points="556.541,146.629 577.002,126.167 575.588,126.167 555.127,146.629 	"/>
	<polygon fill="#FFFBFF" points="566.541,146.629 587.002,126.167 585.588,126.167 565.127,146.629 	"/>
	<polygon fill="#FFFBFF" points="576.541,146.629 597.002,126.167 595.588,126.167 575.127,146.629 	"/>
	<polygon fill="#FFFBFF" points="586.541,146.629 607.002,126.167 605.588,126.167 585.127,146.629 	"/>
	<polygon fill="#FFFBFF" points="596.541,146.629 617.002,126.167 615.588,126.167 595.127,146.629 	"/>
	<polygon fill="#FFFBFF" points="606.541,146.629 627.002,126.167 625.588,126.167 605.127,146.629 	"/>
	<polygon fill="#FFFBFF" points="616.541,146.629 637.002,126.167 635.588,126.167 615.127,146.629 	"/>
	<polygon fill="#FFFBFF" points="626.541,146.629 647.002,126.167 645.588,126.167 625.127,146.629 	"/>
	<polygon fill="#FFFBFF" points="636.541,146.629 657.002,126.167 655.588,126.167 635.127,146.629 	"/>
	<polygon fill="#FFFBFF" points="646.541,146.629 667.002,126.167 665.588,126.167 645.127,146.629 	"/>
	<polygon fill="#FFFBFF" points="656.541,146.629 677.002,126.167 675.588,126.167 655.127,146.629 	"/>
	<polygon fill="#FFFBFF" points="521.541,146.629 542.002,126.167 540.588,126.167 520.127,146.629 	"/>
	<polygon fill="#FFFBFF" points="531.541,146.629 552.002,126.167 550.588,126.167 530.127,146.629 	"/>
	<polygon fill="#FFFBFF" points="541.541,146.629 562.002,126.167 560.588,126.167 540.127,146.629 	"/>
	<polygon fill="#FFFBFF" points="551.541,146.629 572.002,126.167 570.588,126.167 550.127,146.629 	"/>
	<polygon fill="#FFFBFF" points="561.541,146.629 582.002,126.167 580.588,126.167 560.127,146.629 	"/>
	<polygon fill="#FFFBFF" points="571.541,146.629 592.002,126.167 590.588,126.167 570.127,146.629 	"/>
	<polygon fill="#FFFBFF" points="581.541,146.629 602.002,126.167 600.588,126.167 580.127,146.629 	"/>
	<polygon fill="#FFFBFF" points="591.541,146.629 612.002,126.167 610.588,126.167 590.127,146.629 	"/>
	<polygon fill="#FFFBFF" points="601.541,146.629 622.002,126.167 620.588,126.167 600.127,146.629 	"/>
	<polygon fill="#FFFBFF" points="611.541,146.629 632.002,126.167 630.588,126.167 610.127,146.629 	"/>
	<polygon fill="#FFFBFF" points="621.541,146.629 642.002,126.167 640.588,126.167 620.127,146.629 	"/>
	<polygon fill="#FFFBFF" points="631.541,146.629 652.002,126.167 650.588,126.167 630.127,146.629 	"/>
	<polygon fill="#FFFBFF" points="641.541,146.629 662.002,126.167 660.588,126.167 640.127,146.629 	"/>
	<polygon fill="#FFFBFF" points="651.541,146.629 672.002,126.167 670.588,126.167 650.127,146.629 	"/>
	<polygon fill="#FFFBFF" points="386.541,146.629 407.002,126.167 405.588,126.167 385.126,146.629 	"/>
	<polygon fill="#FFFBFF" points="396.541,146.629 417.002,126.167 415.588,126.167 395.126,146.629 	"/>
	<polygon fill="#FFFBFF" points="406.541,146.629 427.002,126.167 425.588,126.167 405.126,146.629 	"/>
	<polygon fill="#FFFBFF" points="416.541,146.629 437.002,126.167 435.588,126.167 415.126,146.629 	"/>
	<polygon fill="#FFFBFF" points="426.541,146.629 447.002,126.167 445.588,126.167 425.126,146.629 	"/>
	<polygon fill="#FFFBFF" points="436.541,146.629 457.002,126.167 455.588,126.167 435.126,146.629 	"/>
	<polygon fill="#FFFBFF" points="446.541,146.629 467.002,126.167 465.588,126.167 445.126,146.629 	"/>
	<polygon fill="#FFFBFF" points="456.541,146.629 477.002,126.167 475.588,126.167 455.126,146.629 	"/>
	<polygon fill="#FFFBFF" points="466.541,146.629 487.002,126.167 485.588,126.167 465.126,146.629 	"/>
	<polygon fill="#FFFBFF" points="476.541,146.629 497.002,126.167 495.588,126.167 475.126,146.629 	"/>
	<polygon fill="#FFFBFF" points="486.541,146.629 507.002,126.167 505.588,126.167 485.126,146.629 	"/>
	<polygon fill="#FFFBFF" points="496.541,146.629 517.002,126.167 515.588,126.167 495.126,146.629 	"/>
	<polygon fill="#FFFBFF" points="506.541,146.629 527.002,126.167 525.588,126.167 505.127,146.629 	"/>
	<polygon fill="#FFFBFF" points="516.541,146.629 537.002,126.167 535.588,126.167 515.127,146.629 	"/>
	<polygon fill="#FFFBFF" points="381.541,146.629 402.002,126.167 400.588,126.167 380.126,146.629 	"/>
	<polygon fill="#FFFBFF" points="391.541,146.629 412.002,126.167 410.588,126.167 390.126,146.629 	"/>
	<polygon fill="#FFFBFF" points="401.541,146.629 422.002,126.167 420.588,126.167 400.126,146.629 	"/>
	<polygon fill="#FFFBFF" points="411.541,146.629 432.002,126.167 430.588,126.167 410.126,146.629 	"/>
	<polygon fill="#FFFBFF" points="421.541,146.629 442.002,126.167 440.588,126.167 420.126,146.629 	"/>
	<polygon fill="#FFFBFF" points="431.541,146.629 452.002,126.167 450.588,126.167 430.126,146.629 	"/>
	<polygon fill="#FFFBFF" points="441.541,146.629 462.002,126.167 460.588,126.167 440.126,146.629 	"/>
	<polygon fill="#FFFBFF" points="451.541,146.629 472.002,126.167 470.588,126.167 450.126,146.629 	"/>
	<polygon fill="#FFFBFF" points="461.541,146.629 482.002,126.167 480.588,126.167 460.126,146.629 	"/>
	<polygon fill="#FFFBFF" points="471.541,146.629 492.002,126.167 490.588,126.167 470.126,146.629 	"/>
	<polygon fill="#FFFBFF" points="481.541,146.629 502.002,126.167 500.588,126.167 480.126,146.629 	"/>
	<polygon fill="#FFFBFF" points="491.541,146.629 512.002,126.167 510.588,126.167 490.126,146.629 	"/>
	<polygon fill="#FFFBFF" points="501.541,146.629 522.002,126.167 520.588,126.167 500.127,146.629 	"/>
	<polygon fill="#FFFBFF" points="511.541,146.629 532.002,126.167 530.588,126.167 510.127,146.629 	"/>
	<polygon fill="#FFFBFF" points="246.541,146.629 267.002,126.167 265.588,126.167 245.126,146.629 	"/>
	<polygon fill="#FFFBFF" points="256.541,146.629 277.002,126.167 275.588,126.167 255.126,146.629 	"/>
	<polygon fill="#FFFBFF" points="266.541,146.629 287.002,126.167 285.588,126.167 265.126,146.629 	"/>
	<polygon fill="#FFFBFF" points="276.541,146.629 297.002,126.167 295.588,126.167 275.126,146.629 	"/>
	<polygon fill="#FFFBFF" points="286.541,146.629 307.002,126.167 305.588,126.167 285.126,146.629 	"/>
	<polygon fill="#FFFBFF" points="296.541,146.629 317.002,126.167 315.588,126.167 295.126,146.629 	"/>
	<polygon fill="#FFFBFF" points="306.541,146.629 327.002,126.167 325.588,126.167 305.126,146.629 	"/>
	<polygon fill="#FFFBFF" points="316.541,146.629 337.002,126.167 335.588,126.167 315.126,146.629 	"/>
	<polygon fill="#FFFBFF" points="326.541,146.629 347.002,126.167 345.588,126.167 325.126,146.629 	"/>
	<polygon fill="#FFFBFF" points="336.541,146.629 357.002,126.167 355.588,126.167 335.126,146.629 	"/>
	<polygon fill="#FFFBFF" points="346.541,146.629 367.002,126.167 365.588,126.167 345.126,146.629 	"/>
	<polygon fill="#FFFBFF" points="356.541,146.629 377.002,126.167 375.588,126.167 355.126,146.629 	"/>
	<polygon fill="#FFFBFF" points="366.541,146.629 387.002,126.167 385.588,126.167 365.126,146.629 	"/>
	<polygon fill="#FFFBFF" points="376.541,146.629 397.002,126.167 395.588,126.167 375.126,146.629 	"/>
	<polygon fill="#FFFBFF" points="241.541,146.629 262.002,126.167 260.588,126.167 240.126,146.629 	"/>
	<polygon fill="#FFFBFF" points="251.541,146.629 272.002,126.167 270.588,126.167 250.126,146.629 	"/>
	<polygon fill="#FFFBFF" points="261.541,146.629 282.002,126.167 280.588,126.167 260.126,146.629 	"/>
	<polygon fill="#FFFBFF" points="271.541,146.629 292.002,126.167 290.588,126.167 270.126,146.629 	"/>
	<polygon fill="#FFFBFF" points="281.541,146.629 302.002,126.167 300.588,126.167 280.126,146.629 	"/>
	<polygon fill="#FFFBFF" points="291.541,146.629 312.002,126.167 310.588,126.167 290.126,146.629 	"/>
	<polygon fill="#FFFBFF" points="301.541,146.629 322.002,126.167 320.588,126.167 300.126,146.629 	"/>
	<polygon fill="#FFFBFF" points="311.541,146.629 332.002,126.167 330.588,126.167 310.126,146.629 	"/>
	<polygon fill="#FFFBFF" points="321.541,146.629 342.002,126.167 340.588,126.167 320.126,146.629 	"/>
	<polygon fill="#FFFBFF" points="331.541,146.629 352.002,126.167 350.588,126.167 330.126,146.629 	"/>
	<polygon fill="#FFFBFF" points="341.541,146.629 362.002,126.167 360.588,126.167 340.126,146.629 	"/>
	<polygon fill="#FFFBFF" points="351.541,146.629 372.002,126.167 370.588,126.167 350.126,146.629 	"/>
	<polygon fill="#FFFBFF" points="361.541,146.629 382.002,126.167 380.588,126.167 360.126,146.629 	"/>
	<polygon fill="#FFFBFF" points="371.541,146.629 392.002,126.167 390.588,126.167 370.126,146.629 	"/>
	<polygon fill="#FFFBFF" points="135.588,126.167 131.958,129.797 131.958,131.211 137.002,126.167 	"/>
	<polygon fill="#FFFBFF" points="145.588,126.167 131.958,139.797 131.958,141.211 147.002,126.167 	"/>
	<polygon fill="#FFFBFF" points="136.541,146.629 157.002,126.167 155.588,126.167 135.126,146.629 	"/>
	<polygon fill="#FFFBFF" points="146.541,146.629 167.002,126.167 165.588,126.167 145.126,146.629 	"/>
	<polygon fill="#FFFBFF" points="156.541,146.629 177.002,126.167 175.588,126.167 155.126,146.629 	"/>
	<polygon fill="#FFFBFF" points="166.541,146.629 187.002,126.167 185.588,126.167 165.126,146.629 	"/>
	<polygon fill="#FFFBFF" points="176.541,146.629 197.002,126.167 195.588,126.167 175.126,146.629 	"/>
	<polygon fill="#FFFBFF" points="186.541,146.629 207.002,126.167 205.588,126.167 185.126,146.629 	"/>
	<polygon fill="#FFFBFF" points="196.541,146.629 217.002,126.167 215.588,126.167 195.126,146.629 	"/>
	<polygon fill="#FFFBFF" points="206.541,146.629 227.002,126.167 225.588,126.167 205.126,146.629 	"/>
	<polygon fill="#FFFBFF" points="216.541,146.629 237.002,126.167 235.588,126.167 215.126,146.629 	"/>
	<polygon fill="#FFFBFF" points="226.541,146.629 247.002,126.167 245.588,126.167 225.126,146.629 	"/>
	<polygon fill="#FFFBFF" points="236.541,146.629 257.002,126.167 255.588,126.167 235.126,146.629 	"/>
	<polygon fill="#FFFBFF" points="140.588,126.167 131.958,134.797 131.958,136.211 142.002,126.167 	"/>
	<polygon fill="#FFFBFF" points="150.588,126.167 131.958,144.797 131.958,146.211 152.002,126.167 	"/>
	<polygon fill="#FFFBFF" points="141.541,146.629 162.002,126.167 160.588,126.167 140.126,146.629 	"/>
	<polygon fill="#FFFBFF" points="151.541,146.629 172.002,126.167 170.588,126.167 150.126,146.629 	"/>
	<polygon fill="#FFFBFF" points="161.541,146.629 182.002,126.167 180.588,126.167 160.126,146.629 	"/>
	<polygon fill="#FFFBFF" points="171.541,146.629 192.002,126.167 190.588,126.167 170.126,146.629 	"/>
	<polygon fill="#FFFBFF" points="181.541,146.629 202.002,126.167 200.588,126.167 180.126,146.629 	"/>
	<polygon fill="#FFFBFF" points="191.541,146.629 212.002,126.167 210.588,126.167 190.126,146.629 	"/>
	<polygon fill="#FFFBFF" points="201.541,146.629 222.002,126.167 220.588,126.167 200.126,146.629 	"/>
	<polygon fill="#FFFBFF" points="211.541,146.629 232.002,126.167 230.588,126.167 210.126,146.629 	"/>
	<polygon fill="#FFFBFF" points="221.541,146.629 242.002,126.167 240.588,126.167 220.126,146.629 	"/>
	<polygon fill="#FFFBFF" points="231.541,146.629 252.002,126.167 250.588,126.167 230.126,146.629 	"/>
	<polygon fill="#FFFBFF" points="946.541,146.629 967.003,126.167 965.589,126.167 945.127,146.629 	"/>
	<polygon fill="#FFFBFF" points="956.541,146.629 977.003,126.167 975.589,126.167 955.127,146.629 	"/>
	<polygon fill="#FFFBFF" points="966.541,146.629 987.003,126.167 985.589,126.167 965.127,146.629 	"/>
	<polygon fill="#FFFBFF" points="976.541,146.629 997.003,126.167 995.589,126.167 975.127,146.629 	"/>
	<polygon fill="#FFFBFF" points="986.541,146.629 1007.003,126.167 1005.589,126.167 985.127,146.629 	"/>
	<polygon fill="#FFFBFF" points="996.541,146.629 1017.003,126.167 1015.589,126.167 995.127,146.629 	"/>
	<polygon fill="#FFFBFF" points="1006.541,146.629 1026.252,126.918 1026.252,126.167 1025.589,126.167 1005.127,146.629 	"/>
	<polygon fill="#FFFBFF" points="1016.541,146.629 1026.252,136.918 1026.252,135.504 1015.127,146.629 	"/>
	<polygon fill="#FFFBFF" points="1026.252,146.629 1026.252,145.504 1025.127,146.629 	"/>
	<polygon fill="#FFFBFF" points="941.541,146.629 962.003,126.167 960.589,126.167 940.127,146.629 	"/>
	<polygon fill="#FFFBFF" points="951.541,146.629 972.003,126.167 970.589,126.167 950.127,146.629 	"/>
	<polygon fill="#FFFBFF" points="961.541,146.629 982.003,126.167 980.589,126.167 960.127,146.629 	"/>
	<polygon fill="#FFFBFF" points="971.541,146.629 992.003,126.167 990.589,126.167 970.127,146.629 	"/>
	<polygon fill="#FFFBFF" points="981.541,146.629 1002.003,126.167 1000.589,126.167 980.127,146.629 	"/>
	<polygon fill="#FFFBFF" points="991.541,146.629 1012.003,126.167 1010.589,126.167 990.127,146.629 	"/>
	<polygon fill="#FFFBFF" points="1001.541,146.629 1022.003,126.167 1020.589,126.167 1000.127,146.629 	"/>
	<polygon fill="#FFFBFF" points="1011.541,146.629 1026.252,131.918 1026.252,130.504 1010.127,146.629 	"/>
	<polygon fill="#FFFBFF" points="1021.541,146.629 1026.252,141.918 1026.252,140.504 1020.127,146.629 	"/>
	<polygon fill="#FFFBFF" points="806.541,146.629 827.003,126.167 825.589,126.167 805.127,146.629 	"/>
	<polygon fill="#FFFBFF" points="816.541,146.629 837.003,126.167 835.589,126.167 815.127,146.629 	"/>
	<polygon fill="#FFFBFF" points="826.541,146.629 847.003,126.167 845.589,126.167 825.127,146.629 	"/>
	<polygon fill="#FFFBFF" points="836.541,146.629 857.003,126.167 855.589,126.167 835.127,146.629 	"/>
	<polygon fill="#FFFBFF" points="846.541,146.629 867.003,126.167 865.589,126.167 845.127,146.629 	"/>
	<polygon fill="#FFFBFF" points="856.541,146.629 877.003,126.167 875.589,126.167 855.127,146.629 	"/>
	<polygon fill="#FFFBFF" points="866.541,146.629 887.003,126.167 885.589,126.167 865.127,146.629 	"/>
	<polygon fill="#FFFBFF" points="876.541,146.629 897.003,126.167 895.589,126.167 875.127,146.629 	"/>
	<polygon fill="#FFFBFF" points="886.541,146.629 907.003,126.167 905.589,126.167 885.127,146.629 	"/>
	<polygon fill="#FFFBFF" points="896.541,146.629 917.003,126.167 915.589,126.167 895.127,146.629 	"/>
	<polygon fill="#FFFBFF" points="906.541,146.629 927.003,126.167 925.589,126.167 905.127,146.629 	"/>
	<polygon fill="#FFFBFF" points="916.541,146.629 937.003,126.167 935.589,126.167 915.127,146.629 	"/>
	<polygon fill="#FFFBFF" points="926.541,146.629 947.003,126.167 945.589,126.167 925.127,146.629 	"/>
	<polygon fill="#FFFBFF" points="936.541,146.629 957.003,126.167 955.589,126.167 935.127,146.629 	"/>
	<polygon fill="#FFFBFF" points="801.541,146.629 822.003,126.167 820.589,126.167 800.127,146.629 	"/>
	<polygon fill="#FFFBFF" points="811.541,146.629 832.003,126.167 830.589,126.167 810.127,146.629 	"/>
	<polygon fill="#FFFBFF" points="821.541,146.629 842.003,126.167 840.589,126.167 820.127,146.629 	"/>
	<polygon fill="#FFFBFF" points="831.541,146.629 852.003,126.167 850.589,126.167 830.127,146.629 	"/>
	<polygon fill="#FFFBFF" points="841.541,146.629 862.003,126.167 860.589,126.167 840.127,146.629 	"/>
	<polygon fill="#FFFBFF" points="851.541,146.629 872.003,126.167 870.589,126.167 850.127,146.629 	"/>
	<polygon fill="#FFFBFF" points="861.541,146.629 882.003,126.167 880.589,126.167 860.127,146.629 	"/>
	<polygon fill="#FFFBFF" points="871.541,146.629 892.003,126.167 890.589,126.167 870.127,146.629 	"/>
	<polygon fill="#FFFBFF" points="881.541,146.629 902.003,126.167 900.589,126.167 880.127,146.629 	"/>
	<polygon fill="#FFFBFF" points="891.541,146.629 912.003,126.167 910.589,126.167 890.127,146.629 	"/>
	<polygon fill="#FFFBFF" points="901.541,146.629 922.003,126.167 920.589,126.167 900.127,146.629 	"/>
	<polygon fill="#FFFBFF" points="911.541,146.629 932.003,126.167 930.589,126.167 910.127,146.629 	"/>
	<polygon fill="#FFFBFF" points="921.541,146.629 942.003,126.167 940.589,126.167 920.127,146.629 	"/>
	<polygon fill="#FFFBFF" points="931.541,146.629 952.003,126.167 950.589,126.167 930.127,146.629 	"/>
	<polygon fill="#FFFBFF" points="666.541,146.629 687.002,126.167 685.588,126.167 665.127,146.629 	"/>
	<polygon fill="#FFFBFF" points="676.541,146.629 697.002,126.167 695.588,126.167 675.127,146.629 	"/>
	<polygon fill="#FFFBFF" points="686.541,146.629 707.002,126.167 705.588,126.167 685.127,146.629 	"/>
	<polygon fill="#FFFBFF" points="696.541,146.629 717.002,126.167 715.588,126.167 695.127,146.629 	"/>
	<polygon fill="#FFFBFF" points="706.541,146.629 727.002,126.167 725.588,126.167 705.127,146.629 	"/>
	<polygon fill="#FFFBFF" points="716.541,146.629 737.002,126.167 735.588,126.167 715.127,146.629 	"/>
	<polygon fill="#FFFBFF" points="726.541,146.629 747.002,126.167 745.588,126.167 725.127,146.629 	"/>
	<polygon fill="#FFFBFF" points="736.541,146.629 757.002,126.167 755.588,126.167 735.127,146.629 	"/>
	<polygon fill="#FFFBFF" points="746.541,146.629 767.002,126.167 765.588,126.167 745.127,146.629 	"/>
	<polygon fill="#FFFBFF" points="756.541,146.629 777.002,126.167 775.588,126.167 755.127,146.629 	"/>
	<polygon fill="#FFFBFF" points="766.541,146.629 787.002,126.167 785.588,126.167 765.127,146.629 	"/>
	<polygon fill="#FFFBFF" points="776.541,146.629 797.003,126.167 795.589,126.167 775.127,146.629 	"/>
	<polygon fill="#FFFBFF" points="786.541,146.629 807.003,126.167 805.589,126.167 785.127,146.629 	"/>
	<polygon fill="#FFFBFF" points="796.541,146.629 817.003,126.167 815.589,126.167 795.127,146.629 	"/>
	<polygon fill="#FFFBFF" points="661.541,146.629 682.002,126.167 680.588,126.167 660.127,146.629 	"/>
	<polygon fill="#FFFBFF" points="671.541,146.629 692.002,126.167 690.588,126.167 670.127,146.629 	"/>
	<polygon fill="#FFFBFF" points="681.541,146.629 702.002,126.167 700.588,126.167 680.127,146.629 	"/>
	<polygon fill="#FFFBFF" points="691.541,146.629 712.002,126.167 710.588,126.167 690.127,146.629 	"/>
	<polygon fill="#FFFBFF" points="701.541,146.629 722.002,126.167 720.588,126.167 700.127,146.629 	"/>
	<polygon fill="#FFFBFF" points="711.541,146.629 732.002,126.167 730.588,126.167 710.127,146.629 	"/>
	<polygon fill="#FFFBFF" points="721.541,146.629 742.002,126.167 740.588,126.167 720.127,146.629 	"/>
	<polygon fill="#FFFBFF" points="731.541,146.629 752.002,126.167 750.588,126.167 730.127,146.629 	"/>
	<polygon fill="#FFFBFF" points="741.541,146.629 762.002,126.167 760.588,126.167 740.127,146.629 	"/>
	<polygon fill="#FFFBFF" points="751.541,146.629 772.002,126.167 770.588,126.167 750.127,146.629 	"/>
	<polygon fill="#FFFBFF" points="761.541,146.629 782.002,126.167 780.588,126.167 760.127,146.629 	"/>
	<polygon fill="#FFFBFF" points="771.541,146.629 792.003,126.167 790.589,126.167 770.127,146.629 	"/>
	<polygon fill="#FFFBFF" points="781.541,146.629 802.003,126.167 800.589,126.167 780.127,146.629 	"/>
	<polygon fill="#FFFBFF" points="791.541,146.629 812.003,126.167 810.589,126.167 790.127,146.629 	"/>
</g>
<g>
	<path fill="#542954" d="M935.626-5.527c-0.002,0-0.003-0.001-0.005-0.001c-0.002,0-0.003,0-0.005,0
		C924.779-8.428,913.399-10,901.645-10c-72.403,0-131.103,58.697-131.103,131.102s58.697,131.104,131.104,131.104
		c4.089,0,8.127-0.213,12.117-0.58c-70.658-6.078-125.988-61.246-125.988-128.434c0-0.336,0.021-0.67,0.024-1.006
		c0.173-20.818,5.672-40.453,15.272-57.814l-0.001-0.047l0.003,0.047c0.006-0.012,0.012-0.022,0.021-0.038
		c0.145,0.064,4.231,1.816,10.103,5.031c3.456-6.043,7.471-11.764,11.981-17.12c-4.557-4.713-7.251-8.141-7.32-8.227
		c0.001-0.001,0.001-0.001,0.002-0.002c0.009-0.006,0.015-0.015,0.021-0.021c20.812-22.595,50.63-36.764,83.767-36.764
		c3.747,0,7.449,0.193,11.107,0.547c2.102-0.185,4.218-0.323,6.347-0.416c-2.129,0.093-4.245,0.232-6.347,0.417
		c4.743,0.459,9.396,1.229,13.95,2.253l0.038-0.012v0.001l-0.038,0.012c0.011,0.002,0.021,0.005,0.034,0.008
		c-0.027,0.478-3.461,55.107-37.8,67.951c-0.09,0.032-0.18,0.053-0.268,0.085c4.111-1.238,8.46-1.923,12.974-1.923
		c0.001,0,0.001,0,0.002,0c-4.514,0-8.859,0.686-12.972,1.923c-0.308,0.111-0.61,0.193-0.919,0.295
		c-13.513,4.396-24.228,15.013-28.74,28.463c4.513-13.45,15.227-24.067,28.738-28.463c-24.764,8.279-50.369-13.508-62.575-26.127
		c-4.513,5.355-8.525,11.077-11.981,17.12c15.54,8.504,43.499,27.212,43.499,51.737c0,18.486,11.194,34.377,27.171,41.273
		c1.976,0.855,4.035,1.533,6.143,2.096c3.716,0.998,7.604,1.58,11.636,1.58c-0.001,0-0.001,0-0.002,0
		c-4.028,0-7.919-0.582-11.636-1.58c0.095,0.051,0.188,0.08,0.281,0.129c27.473,14.629,36.375,67.125,36.448,67.564
		c6.871-1.545,13.511-3.695,19.853-6.424c-0.083-0.162-26.45-51.418-9.775-76.711c0.003-0.004,0.005-0.006,0.008-0.01
		c0.005-0.008,0.012-0.016,0.017-0.023c0.713-0.9,1.42-1.811,2.065-2.762c0.007-0.008,0.012-0.016,0.019-0.023
		c0.007-0.01,0.013-0.02,0.019-0.029c20.861-23.996,75.739-14.896,76.094-14.838c0.298-3.377,0.479-6.785,0.479-10.242
		c0-3.445-0.182-6.85-0.479-10.219c-0.313,0.039-61.071,7.701-75.865-14.502c-0.124-0.188-0.245-0.377-0.371-0.562
		c-14.143-22.906,7.719-79.179,7.789-79.357c-3.168-1.364-6.412-2.582-9.722-3.653c3.312,1.071,6.556,2.29,9.726,3.654l0.003-0.009
		l0.014,0.015c37.539,16.157,64.638,51.917,68.428,94.388l0.018,0.023l-0.015,0.002c0.298,3.369,0.479,6.77,0.479,10.219
		c0,3.457-0.183,6.865-0.479,10.242l0.015,0.004l-0.018,0.025c-3.802,42.459-30.897,78.209-68.428,94.359l-0.002,0.004
		c-0.006,0.002-0.012,0.002-0.014,0.006l-0.001-0.002c-6.342,2.729-12.979,4.879-19.853,6.424c0,0.004,0.003,0.02,0.003,0.02l0,0
		c0-0.002-0.003-0.016-0.003-0.02c-0.013,0.004-0.023,0.006-0.034,0.008h-0.004c-8.065,1.813-16.443,2.801-25.058,2.801
		c-4.695,0-9.313-0.318-13.86-0.869c11.74,3.32,24.207,5.115,37.13,5.115c17.906,0,34.932-3.453,50.363-9.643
		c34.684-23.592,57.471-63.369,57.471-108.477c0-38.898-16.956-73.826-43.867-97.834c37.206,20.174,62.187,57.379,62.187,99.958
		c0,47.592-31.192,88.473-75.79,106.355c-0.001,0-0.002,0-0.003,0.002c-15.433,6.188-32.456,9.641-50.36,9.641
		c-12.923,0-25.39-1.795-37.13-5.115c-26.938-3.275-50.964-15.943-68.715-34.648c-0.006-0.002-0.013-0.008-0.016-0.014l0.001-0.002
		h-0.001c0.04-0.047,2.101-2.377,5.585-5.867l0.001,0.002c11.455-11.451,38.243-35.266,59.229-31.201
		c-15.977-6.896-27.171-22.787-27.171-41.271c0,25.59-28.383,48.283-42.383,57.92l0,0c-4.543,3.127-7.568,4.881-7.622,4.912
		c-0.001-0.004-0.003-0.008-0.008-0.014c-11.752-17.729-18.67-38.93-18.884-61.736c-0.003,0.336-0.024,0.67-0.024,1.006
		c0,67.188,55.327,122.354,125.987,128.434h-0.001c4.275,0.369,8.603,0.58,12.979,0.58c76.75,0,138.968-57.764,138.968-129.014
		C1065.711,54.715,1008.232-1.271,935.626-5.527z M806.126,59.15c-0.011,0.017-0.023,0.033-0.034,0.05
		c12.036-19.512,29.399-35.827,50.247-47.236C835.509,23.363,818.16,39.66,806.126,59.15z M922.622,114.16
		c0-3.307,2.687-5.992,5.993-5.992c3.308,0,5.994,2.686,5.994,5.992s-2.688,5.992-5.994,5.992
		C925.307,120.152,922.622,117.465,922.622,114.16z M925.619,144.127c0,3.307-2.688,5.994-5.993,5.994s-5.993-2.689-5.993-5.994
		c0-3.307,2.687-5.994,5.993-5.994S925.619,140.82,925.619,144.127z M903.759,90.188c3.309,0,5.993,2.686,5.993,5.994
		c0,3.307-2.687,5.992-5.993,5.992c-3.306,0-5.993-2.688-5.993-5.992C897.766,92.874,900.452,90.188,903.759,90.188z M871.68,114.16
		c0-3.307,2.687-5.992,5.993-5.992s5.993,2.686,5.993,5.992s-2.688,5.992-5.993,5.992S871.68,117.465,871.68,114.16z
		 M886.663,150.121c-3.305,0-5.993-2.689-5.993-5.994c0-3.309,2.688-5.994,5.993-5.994s5.993,2.688,5.993,5.994
		S889.968,150.121,886.663,150.121z M888.162,121.102c0-7.438,6.042-13.484,13.483-13.484c7.438,0,13.484,6.047,13.484,13.484
		c0,7.439-6.046,13.484-13.484,13.484C894.205,134.586,888.162,128.541,888.162,121.102z M931.851,11.313
		c0.46,0.125,0.908,0.276,1.366,0.407C932.76,11.589,932.311,11.438,931.851,11.313z"/>
	<path fill="#542954" d="M1015.038,131.344c-0.003,0.01-0.003,0.018-0.003,0.029l0.018-0.025L1015.038,131.344z"/>
	<path fill="#542954" d="M946.593,16.464c0.003,0.003,0.01,0.003,0.017,0.006l-0.014-0.015L946.593,16.464z"/>
	<path fill="#542954" d="M1015.035,110.857c0.003,0.01,0.003,0.018,0.003,0.025l0.015-0.002L1015.035,110.857z"/>
	<path fill="#542954" d="M890.412,20.715c-21.974,0-60.138,25.823-60.136,25.822l14.188,11.387
		C858.786,35.674,890.412,20.715,890.412,20.715z"/>
	<path fill="#542954" d="M829.885,153.314c0,0-9.37-30.479,0-61.431l-21.418-13.335c0,0-22.158,44.119,1.314,92.105L829.885,153.314
		z"/>
	<path fill="#542954" d="M845.963,183.939l-13.486,13.09c30.468,28.484,57.936,28.721,57.936,28.721
		C853.454,206.539,845.963,183.939,845.963,183.939z"/>
</g>
<g opacity="0.1">
	<path fill="#FFFBFF" d="M935.626-5.527c-0.002,0-0.003-0.001-0.005-0.001c-0.002,0-0.003,0-0.005,0
		C924.779-8.428,913.399-10,901.645-10c-72.403,0-131.103,58.697-131.103,131.102s58.697,131.104,131.104,131.104
		c4.089,0,8.127-0.213,12.117-0.58c-70.658-6.078-125.988-61.246-125.988-128.434c0-0.336,0.021-0.67,0.024-1.006
		c0.173-20.818,5.672-40.453,15.272-57.814l-0.001-0.047l0.003,0.047c0.006-0.012,0.012-0.022,0.021-0.038
		c0.145,0.064,4.231,1.816,10.103,5.031c3.456-6.043,7.471-11.764,11.981-17.12c-4.557-4.713-7.251-8.141-7.32-8.227
		c0.001,0,0.001-0.001,0.002-0.002c0.009-0.006,0.015-0.015,0.021-0.021c20.812-22.595,50.63-36.764,83.767-36.764
		c3.747,0,7.449,0.193,11.107,0.547c2.102-0.184,4.218-0.323,6.347-0.416c-2.129,0.093-4.245,0.232-6.347,0.417
		c4.743,0.459,9.396,1.229,13.95,2.253l0.038-0.012v0.001l-0.038,0.012c0.011,0.002,0.021,0.005,0.034,0.008
		c-0.027,0.478-3.461,55.107-37.8,67.951c-0.09,0.032-0.18,0.053-0.268,0.085c4.111-1.238,8.46-1.923,12.974-1.923
		c0.001,0,0.001,0,0.002,0c-4.514,0-8.859,0.685-12.972,1.923c-0.308,0.111-0.61,0.193-0.919,0.295
		c-13.513,4.396-24.228,15.012-28.74,28.462c4.513-13.45,15.227-24.066,28.738-28.462c-24.764,8.279-50.369-13.508-62.575-26.127
		c-4.513,5.355-8.525,11.077-11.981,17.12c15.54,8.504,43.499,27.212,43.499,51.737c0,13.865,6.297,26.27,16.186,34.515
		c-9.889-8.245-16.186-20.649-16.186-34.513c0,25.589-28.382,48.283-42.382,57.921c-0.001,0-0.001-0.001-0.001-0.001
		c-4.543,3.128-7.568,4.882-7.622,4.913c-0.001-0.005-0.003-0.009-0.008-0.015c-11.752-17.729-18.67-38.93-18.884-61.736
		c-0.003,0.336-0.024,0.67-0.024,1.006c0,67.188,55.327,122.354,125.987,128.434h-0.001c4.275,0.369,8.603,0.58,12.979,0.58
		c76.75,0,138.968-57.764,138.968-129.014C1065.711,54.715,1008.232-1.271,935.626-5.527z M806.126,59.15
		c-0.011,0.017-0.023,0.033-0.034,0.05c12.036-19.512,29.399-35.827,50.247-47.236C835.509,23.363,818.16,39.66,806.126,59.15z
		 M925.619,144.127c0,3.307-2.688,5.994-5.993,5.994s-5.993-2.689-5.993-5.994c0-3.307,2.687-5.994,5.993-5.994
		S925.619,140.82,925.619,144.127z M922.622,114.16c0-3.307,2.687-5.992,5.993-5.992c3.308,0,5.994,2.686,5.994,5.992
		s-2.688,5.992-5.994,5.992C925.307,120.152,922.622,117.465,922.622,114.16z M931.851,11.313c0.46,0.126,0.908,0.276,1.366,0.408
		C932.76,11.589,932.311,11.438,931.851,11.313z M903.759,90.188c3.309,0,5.993,2.686,5.993,5.994c0,3.307-2.687,5.992-5.993,5.992
		c-3.306,0-5.993-2.688-5.993-5.992C897.766,92.874,900.452,90.188,903.759,90.188z M901.646,107.617
		c7.438,0,13.484,6.047,13.484,13.484c0,7.439-6.046,13.484-13.484,13.484c-7.44,0-13.483-6.045-13.483-13.484
		C888.162,113.664,894.204,107.617,901.646,107.617z M892.656,144.127c0,3.307-2.688,5.994-5.993,5.994s-5.993-2.689-5.993-5.994
		c0-3.309,2.688-5.994,5.993-5.994S892.656,140.82,892.656,144.127z M871.68,114.16c0-3.307,2.687-5.992,5.993-5.992
		s5.993,2.686,5.993,5.992s-2.688,5.992-5.993,5.992S871.68,117.465,871.68,114.16z M975.277,229.578
		c-0.001,0.001-0.002,0.001-0.003,0.002c-15.433,6.188-32.456,9.641-50.36,9.641c-12.923,0-25.39-1.795-37.13-5.115
		c-26.938-3.275-50.964-15.943-68.715-34.648c-0.006-0.002-0.013-0.008-0.016-0.015l0.001-0.001l-0.001-0.001
		c0.04-0.046,2.101-2.376,5.585-5.865l0.001,0.001c11.455-11.451,38.243-35.266,59.229-31.201c1.976,0.855,4.035,1.533,6.143,2.096
		c3.716,0.998,7.604,1.58,11.636,1.58c-0.001,0-0.001,0-0.002,0c-4.028,0-7.919-0.582-11.636-1.58
		c0.095,0.051,0.188,0.08,0.281,0.129c27.473,14.629,36.375,67.125,36.448,67.564c6.871-1.545,13.511-3.695,19.853-6.424
		c-0.083-0.162-26.45-51.418-9.775-76.712c0.003-0.003,0.005-0.006,0.008-0.009c0.005-0.008,0.012-0.016,0.017-0.023
		c0.713-0.901,1.42-1.811,2.065-2.762c0.007-0.008,0.012-0.016,0.019-0.023c0.007-0.01,0.013-0.02,0.019-0.028
		c20.861-23.996,75.739-14.897,76.094-14.839c0.298-3.377,0.479-6.785,0.479-10.242c0-3.445-0.182-6.85-0.479-10.219
		c-0.313,0.039-61.074,7.702-75.866-14.504c-0.123-0.187-0.244-0.375-0.37-0.56c-14.144-22.905,7.719-79.179,7.789-79.357
		c-3.168-1.363-6.412-2.582-9.722-3.653c3.312,1.071,6.556,2.29,9.726,3.654l0.003-0.009l0.014,0.015
		c37.539,16.157,64.638,51.917,68.428,94.388l0.018,0.023l-0.015,0.002c0.298,3.369,0.479,6.77,0.479,10.219
		c0,3.457-0.183,6.865-0.479,10.242l0.015,0.004l-0.018,0.025c-3.802,42.459-30.897,78.209-68.428,94.359l-0.002,0.003
		c-0.006,0.003-0.012,0.004-0.014,0.007l-0.001-0.002c-6.342,2.729-12.979,4.879-19.853,6.424c0,0.004,0.003,0.02,0.003,0.02l0,0
		c-0.001-0.003-0.003-0.016-0.003-0.02c-0.013,0.004-0.023,0.006-0.034,0.009l-0.004-0.001c-8.065,1.813-16.443,2.801-25.058,2.801
		c-4.695,0-9.313-0.318-13.86-0.869c11.74,3.32,24.207,5.115,37.13,5.115c17.906,0,34.932-3.453,50.363-9.643
		c34.684-23.592,57.471-63.369,57.471-108.477c0-38.898-16.956-73.826-43.867-97.834c37.206,20.174,62.187,57.379,62.187,99.958
		C1051.067,170.814,1019.875,211.695,975.277,229.578z"/>
	<path fill="#FFFBFF" d="M1015.038,131.344c-0.003,0.01-0.003,0.018-0.003,0.029l0.018-0.025L1015.038,131.344z"/>
	<path fill="#FFFBFF" d="M946.593,16.464c0.003,0.003,0.01,0.003,0.017,0.006l-0.014-0.015L946.593,16.464z"/>
	<path fill="#FFFBFF" d="M1015.035,110.857c0.003,0.01,0.003,0.018,0.003,0.025l0.015-0.002L1015.035,110.857z"/>
	<path fill="#FFFBFF" d="M890.412,20.715c-21.974,0-60.138,25.823-60.136,25.822l14.188,11.387
		C858.786,35.674,890.412,20.715,890.412,20.715z"/>
	<path fill="#FFFBFF" d="M829.885,153.314c0,0-9.37-30.479,0-61.431l-21.418-13.335c0,0-22.158,44.119,1.314,92.105L829.885,153.314
		z"/>
	<path fill="#FFFBFF" d="M845.963,183.939l-13.486,13.09c30.468,28.484,57.936,28.721,57.936,28.721
		C853.454,206.539,845.963,183.939,845.963,183.939z"/>
</g>
</svg>
